<?xml version="1.0" standalone="no"?><!DOCTYPE svg PUBLIC "-//W3C//DTD SVG 1.1//EN" "http://www.w3.org/Graphics/SVG/1.1/DTD/svg11.dtd"><svg t="1676088448141" class="icon" viewBox="0 0 1024 1024" version="1.1" xmlns="http://www.w3.org/2000/svg" p-id="2148" xmlns:xlink="http://www.w3.org/1999/xlink" width="200" height="200"><path d="M481.12 448a10.24 10.24 0 0 0-1.6 3.84 12 12 0 0 0 0 4.16 103.52 103.52 0 0 1-84.8 101.92 100.96 100.96 0 0 1-12.16 1.6h-1.28a102.08 102.08 0 0 1-24.64-5.76 78.72 78.72 0 0 1-13.76-6.24 82.88 82.88 0 0 1-17.28-11.36 16 16 0 0 0-21.92 0l-25.92 25.92a97.92 97.92 0 0 1-135.36 5.12 92.16 92.16 0 0 1-26.4-44.48 16 16 0 0 0-19.2-10.72 107.36 107.36 0 0 1 0.96-32 16 16 0 0 0 7.68 0 109.92 109.92 0 0 0 25.44 35.84A113.76 113.76 0 0 0 288 510.4l25.92-25.92c1.76 1.44 3.52 2.88 5.44 4.16a78.88 78.88 0 0 0 9.76 6.4 52.8 52.8 0 0 0 5.12 2.88 96 96 0 0 0 16 7.2 113.92 113.92 0 0 0 37.12 6.72Q464 510.4 480 448z" fill="#ACD5EA" p-id="2149"></path><path d="M101.6 480a16 16 0 0 1-3.84 0 94.88 94.88 0 0 1 3.04-12.96 64 64 0 0 0 2.4 7.2c0 1.92 1.44 3.84 2.24 5.76a16 16 0 0 1-3.84 0zM394.08 557.92a8.96 8.96 0 0 1 0 1.92 116.16 116.16 0 0 1-5.12 16 89.28 89.28 0 0 1-20.96-2.08 2.4 2.4 0 0 1-1.44 0 94.24 94.24 0 0 1-16-4.32 96 96 0 0 1-16-7.2 52.8 52.8 0 0 1-5.12-2.88 78.88 78.88 0 0 1-9.76-6.4c-1.92-1.28-3.68-2.72-5.44-4.16L288 574.4a113.76 113.76 0 0 1-157.6 5.44A112 112 0 0 1 96.8 512a16 16 0 0 1 18.56 11.68 92.16 92.16 0 0 0 26.4 44.48 97.92 97.92 0 0 0 135.36-5.12l25.92-25.92a16 16 0 0 1 21.92 0 82.88 82.88 0 0 0 17.28 11.36 78.72 78.72 0 0 0 13.76 6.24 102.08 102.08 0 0 0 24.64 5.76h1.28a100.96 100.96 0 0 0 12.16-2.56z" fill="#ACD5EA" p-id="2150"></path><path d="M734.88 544v18.56c0 6.08 0 10.24-1.12 16a2.4 2.4 0 0 1 0 1.12c0 3.84-0.8 7.84-1.44 11.68s0 5.44-1.12 8.16a254.08 254.08 0 0 1-5.76 27.52c0 3.68-1.92 7.36-2.88 10.88s0 2.08 0 2.88l-3.84 12c-1.12 3.2-2.24 6.4-3.52 9.6s-2.56 6.88-4 10.24a312.8 312.8 0 0 1-13.92 29.6c-1.44 2.88-3.04 5.76-4.64 8.48s-3.68 6.56-5.76 9.6-5.12 8.16-7.84 12.16-4 6.08-6.24 8.96-2.72 3.68-4 5.44c-6.56 8.64-13.44 17.12-20.8 25.12l-9.92 10.24c-2.72 2.72-5.44 5.44-8.32 8a330.72 330.72 0 0 1-30.4 25.28q-5.44 4.16-11.04 7.68c-4.16 2.88-8.48 5.76-12.96 8.32a327.52 327.52 0 0 1-55.2 27.2l-9.28 3.36h-1.44c-3.84 1.44-7.84 2.56-11.84 3.84a300.8 300.8 0 0 1-32 7.68V944H192v-80h12a256 256 0 0 1 112-140.32l5.92-3.68c4.32-2.88 8.48-5.76 12.48-8.8s10.88-9.12 16-14.08a96 96 0 0 0 6.72-7.36 73.44 73.44 0 0 0 5.76-6.56 167.52 167.52 0 0 0 14.72-21.76c2.24-3.84 4.32-8 6.24-12 0-1.28 1.12-2.56 1.76-4a58.56 58.56 0 0 0 2.88-7.36 154.4 154.4 0 0 0 6.56-22.72 64 64 0 0 0 1.44-7.68c0-1.92 0-3.68 0.8-5.6v-4.64a61.92 61.92 0 0 0 0-7.68V576a67.04 67.04 0 0 1-8 0h-2.56a116.16 116.16 0 0 0 5.12-16 8.96 8.96 0 0 0 0-1.92 103.52 103.52 0 0 0 84.8-101.92 12 12 0 0 1 0-4.16 13.12 13.12 0 0 1 1.6-3.84H480q-16 62.4-92 64a113.92 113.92 0 0 1-37.12-6.72 96 96 0 0 1-16-7.2 52.8 52.8 0 0 1-5.12-2.88 78.88 78.88 0 0 1-9.76-6.4c-1.92-1.28-3.68-2.72-5.44-4.16L288 510.4a113.76 113.76 0 0 1-157.6 5.44A109.92 109.92 0 0 1 105.44 480c0-1.92-1.6-3.84-2.24-5.76a64 64 0 0 1-2.4-7.2A109.92 109.92 0 0 1 128 420.8l142.4-142.56L341.12 208a66.56 66.56 0 0 0 9.76-34.72V80a112.96 112.96 0 0 1 40.48 7.52A112 112 0 0 1 442.72 128a106.24 106.24 0 0 1 16 35.84 108.64 108.64 0 0 1 4.16 28.16v21.28a347.2 347.2 0 0 1 48 10.72 384 384 0 0 1 83.04 34.88 141.6 141.6 0 0 1 13.44 8 354.88 354.88 0 0 1 40.64 28.32 384.8 384.8 0 0 1 39.04 59.04 396 396 0 0 1 46.4 156c0.96 11.04 1.44 22.4 1.44 33.76z" fill="#CEE6F4" p-id="2151"></path><path d="M798.88 608v336H416v-16c0-64 66.72-58.24 80-62.24 4-1.28 8-2.4 11.84-3.84h1.44l9.28-3.36a327.52 327.52 0 0 0 55.2-27.2c4.32-2.56 8.64-5.28 12.96-8.32s7.52-4.96 11.04-7.68a330.72 330.72 0 0 0 30.4-25.28c2.88-2.56 5.6-5.28 8.32-8l9.92-10.24c7.36-8 14.24-16 20.8-25.12 1.28-1.76 2.72-3.52 4-5.44l6.24-8.96c2.72-4 5.28-8 7.84-12.16s3.84-6.24 5.76-9.6 3.2-5.6 4.64-8.48a312.8 312.8 0 0 0 13.92-30.08c1.44-3.36 2.72-6.72 4-10.24s2.4-6.4 3.52-9.6l3.84-12v-2.88c0-1.12 2.08-7.2 2.88-10.88a254.08 254.08 0 0 0 5.76-27.52c0-2.72 0.8-5.44 1.12-8.16s1.12-7.68 1.44-11.68a2.4 2.4 0 0 0 0-1.12c0-4.96 0.96-10.08 1.12-16s0-12.32 0-18.56a397.76 397.76 0 0 0-85.28-248.16A398.56 398.56 0 0 1 798.88 608z" fill="#ACD5EA" p-id="2152"></path><path d="M896 576v208a96 96 0 0 1-29.28 67.84 90.56 90.56 0 0 1-17.44 13.76 94.56 94.56 0 0 1-50.4 14.4V608a400 400 0 0 0-288-384 347.2 347.2 0 0 0-48-10.72V192a108.16 108.16 0 0 0-4.16-29.92 105.76 105.76 0 0 0-16-34.08h4.16A448.96 448.96 0 0 1 896 576z" fill="#D1B339" p-id="2153"></path><path d="M864 608v208a92.48 92.48 0 0 1-14.72 49.6 94.56 94.56 0 0 1-50.4 14.4V608a400 400 0 0 0-288-384 347.2 347.2 0 0 0-48-10.72V192a108.16 108.16 0 0 0-4.16-29.92A449.12 449.12 0 0 1 864 608zM304 240l-64 64-24.48-24.48A428.96 428.96 0 0 1 112 112c7.84 2.56 16 5.44 23.36 8.64a408 408 0 0 1 66.24 33.44 422.72 422.72 0 0 1 77.76 61.44z" fill="#AA9335" p-id="2154"></path><path d="M280 216l-16 16a34.72 34.72 0 0 1-48.96 0 429.6 429.6 0 0 1-80-110.88 408 408 0 0 1 66.24 33.44 422.72 422.72 0 0 1 77.76 61.44z" fill="#D1B339" p-id="2155"></path><path d="M510.88 456v13.28a1.12 1.12 0 0 1 0 0.8c0 3.52-0.8 6.88-1.44 10.24a74.24 74.24 0 0 1-1.76 8.16 32 32 0 0 1-1.12 4.16 3.84 3.84 0 0 1 0 1.28 75.52 75.52 0 0 1-2.88 8.48 88.8 88.8 0 0 1-3.84 8.96v2.24a81.12 81.12 0 0 1-5.12 9.76l-2.88 4.64a50.4 50.4 0 0 1-3.52 5.28 76.96 76.96 0 0 1-7.04 9.12 133.92 133.92 0 0 1-9.12 9.92c-2.08 1.92-4 3.84-6.24 5.6a6.24 6.24 0 0 1-1.6 1.28c-2.08 1.92-4.32 3.52-6.56 5.28l-3.52 2.4a96 96 0 0 1-8.48 5.44h-0.8c-2.88 1.6-5.76 3.2-8.8 4.64h-0.96a108.16 108.16 0 0 1-10.72 4.64 60.96 60.96 0 0 1-7.04 2.4l-2.72 0.8h-3.36l-8.96 2.08H393.12L384 592h-0.96a16 16 0 0 1-16-15.04 17.44 17.44 0 0 1 0-2.88 16.96 16.96 0 0 1 0-3.04l0.96-2.08a10.24 10.24 0 0 1 1.28-2.24 14.24 14.24 0 0 1 2.08-2.24l1.92-1.6a16 16 0 0 1 4.8-2.24h3.04a100.96 100.96 0 0 0 12.16-1.6 103.52 103.52 0 0 0 84.8-101.92 12 12 0 0 1 0-4.16 13.12 13.12 0 0 1 1.6-3.84 12 12 0 0 1 2.4-3.2 14.4 14.4 0 0 1 3.04-2.4 8.32 8.32 0 0 1 3.04-1.28 13.92 13.92 0 0 1 8.32 0 7.36 7.36 0 0 1 3.04 1.28 14.4 14.4 0 0 1 3.04 2.4 12 12 0 0 1 2.4 3.2 13.12 13.12 0 0 1 1.6 3.84 12 12 0 0 1 4.32 3.04zM595.84 251.36a15.04 15.04 0 0 1-1.92 7.52 16 16 0 0 1-14.08 8.48 17.92 17.92 0 0 1-7.52-1.76 379.84 379.84 0 0 0-65.92-25.6 340.48 340.48 0 0 0-45.92-10.24 16 16 0 0 1-13.6-16V192a93.44 93.44 0 0 0-17.28-54.72 96 96 0 0 0-62.72-40v76a80.96 80.96 0 0 1-12.16 43.04 21.28 21.28 0 0 1-2.24 3.04L139.84 432a92 92 0 0 0-23.04 37.28 16 16 0 0 1-11.36 10.72 16 16 0 0 1-7.68 0h-0.96a16 16 0 0 1-10.4-20 121.44 121.44 0 0 1 30.88-50.24l211.04-211.68a49.6 49.6 0 0 0 6.56-24.8V80a16 16 0 0 1 16-16 128 128 0 0 1 104.96 54.88A125.92 125.92 0 0 1 478.88 192v7.84a344.8 344.8 0 0 1 36.48 8.8 407.84 407.84 0 0 1 71.04 28.16 16 16 0 0 1 9.44 14.56z" fill="#0D182D" p-id="2156"></path><path d="M510.88 456v13.28a1.12 1.12 0 0 1 0 0.8c0 3.52-0.8 6.88-1.44 10.24a74.24 74.24 0 0 1-1.76 8.16 32 32 0 0 1-1.12 4.16 3.84 3.84 0 0 1 0 1.28 75.52 75.52 0 0 1-2.88 8.48 88.8 88.8 0 0 1-3.84 8.96v2.24a81.12 81.12 0 0 1-5.12 9.76l-2.88 4.64a50.4 50.4 0 0 1-3.52 5.28 76.96 76.96 0 0 1-7.04 9.12 133.92 133.92 0 0 1-9.12 9.92c-2.08 1.92-4 3.84-6.24 5.6a6.24 6.24 0 0 1-1.6 1.28c-2.08 1.92-4.32 3.52-6.56 5.28l-3.52 2.4a96 96 0 0 1-8.48 5.44h-0.8c-2.88 1.6-5.76 3.2-8.8 4.64a106.56 106.56 0 0 1-11.68 4.96 60.96 60.96 0 0 1-7.04 2.4l-2.72 0.8h-3.36l-8.96 2.08h-8.48L384 592h-0.96a16 16 0 0 1-16-15.04 17.44 17.44 0 0 1 0-2.88 16.96 16.96 0 0 1 0-3.04l0.96-2.08a10.24 10.24 0 0 1 1.28-2.24 14.24 14.24 0 0 1 2.08-2.24l1.92-1.6a16 16 0 0 1 4.8-2.24h3.04a100.96 100.96 0 0 0 12.16-1.6 103.52 103.52 0 0 0 84.8-101.92 12 12 0 0 1 0-4.16 13.12 13.12 0 0 1 1.6-3.84 12 12 0 0 1 2.4-3.2 14.4 14.4 0 0 1 3.04-2.4 8.32 8.32 0 0 1 3.04-1.28 13.92 13.92 0 0 1 8.32 0 7.36 7.36 0 0 1 3.04 1.28 14.4 14.4 0 0 1 3.04 2.4 12 12 0 0 1 2.4 3.2 13.12 13.12 0 0 1 1.6 3.84 12 12 0 0 1 4.32 3.04zM366.88 960a16 16 0 0 1-16-16A222.4 222.4 0 0 1 416 785.6l8.96-8.32a16 16 0 1 1 21.12 24c-2.4 2.24-4.96 4.48-7.36 7.04A190.08 190.08 0 0 0 382.88 944a16 16 0 0 1-16 16zM475.04 777.6a16 16 0 0 1-14.08-8.32 16 16 0 0 1 6.4-21.76A223.04 223.04 0 0 1 558.88 720V528a16 16 0 0 1 32 0v208a16 16 0 0 1-16 16 190.88 190.88 0 0 0-92.16 23.68 16 16 0 0 1-7.68 1.92zM828 355.36a16 16 0 0 1-13.6-7.52A430.88 430.88 0 0 0 469.92 144a128 128 0 0 1 8.96 48v7.84a344.8 344.8 0 0 1 36.48 8.8 407.84 407.84 0 0 1 71.04 28.16 16 16 0 0 1-6.56 30.56 17.12 17.12 0 0 1-7.36-1.76 379.84 379.84 0 0 0-66.08-25.6 340.48 340.48 0 0 0-45.92-10.24 16 16 0 0 1-13.6-16V192a93.44 93.44 0 0 0-17.28-54.72 16 16 0 0 1-1.12-16 16 16 0 0 1 14.24-9.28h4.16A462.88 462.88 0 0 1 841.6 330.88a16 16 0 0 1-13.6 24.48z" fill="#0D182D" p-id="2157"></path><path d="M798.88 896a16 16 0 0 1-16-16V608a384 384 0 0 0-170.88-320 16 16 0 0 1 17.92-26.56A415.04 415.04 0 0 1 814.88 608v254.4a78.56 78.56 0 0 0 40.48-21.76A80 80 0 0 0 880 784V576a432 432 0 0 0-43.04-188.16 16 16 0 0 1 28.8-13.76A460.32 460.32 0 0 1 912 576v208a114.24 114.24 0 0 1-113.12 112z" fill="#0D182D" p-id="2158"></path><path d="M344 360m-24 0a24 24 0 1 0 48 0 24 24 0 1 0-48 0Z" fill="#0D182D" p-id="2159"></path><path d="M240 320a16 16 0 0 1-11.36-4.64l-24.48-24.48A448 448 0 0 1 96.8 117.12a16 16 0 0 1 20.16-20.32 432 432 0 0 1 72.16 32 16 16 0 1 1-16 28.16c-11.2-6.08-22.56-11.68-34.08-16a412.48 412.48 0 0 0 87.2 128l13.12 13.28L281.44 240l-13.28-13.12a371.68 371.68 0 0 0-42.72-37.12 16 16 0 0 1 19.2-25.6 449.76 449.76 0 0 1 46.24 40l24.48 24.48a16 16 0 0 1 0 22.72l-64 64A16 16 0 0 1 240 320zM560 208a16 16 0 0 1-16-16V144a16 16 0 0 1 32 0v48a16 16 0 0 1-16 16zM896 704h-48a16 16 0 0 1 0-32h48a16 16 0 0 1 0 32zM896 784h-32a16 16 0 0 1 0-32h32a16 16 0 0 1 0 32z" fill="#0D182D" p-id="2160"></path><path d="M512 448v80a192 192 0 0 1-160 189.28 206.08 206.08 0 0 1-30.08 2.72c4.32-2.88 8.48-5.76 12.48-8.8s10.88-9.12 16-14.08a96 96 0 0 0 6.72-7.36 73.44 73.44 0 0 0 5.76-6.56 167.52 167.52 0 0 0 14.72-21.76q3.36-5.76 6.24-12c0-1.28 1.12-2.56 1.76-4a58.56 58.56 0 0 0 2.88-7.36 154.4 154.4 0 0 0 6.56-22.72 64 64 0 0 0 1.44-7.68c0-1.92 0-3.68 0.8-5.6v-4.64a61.92 61.92 0 0 0 0-7.68V576a67.04 67.04 0 0 1-8 0h-2.56a89.28 89.28 0 0 1-18.72-2.24 16.96 16.96 0 0 1 0-3.04l0.96-2.08a10.24 10.24 0 0 1 1.28-2.24 14.24 14.24 0 0 1 2.08-2.24l1.92-1.6a16 16 0 0 1 4.8-2.24h3.04a100.96 100.96 0 0 0 12.16-1.6 103.52 103.52 0 0 0 84.8-101.92 12 12 0 0 1 0-4.16 13.12 13.12 0 0 1 1.6-3.84z" fill="#ACD5EA" p-id="2161"></path><path d="M814.88 608v336a16 16 0 0 1-16 16h-608a16 16 0 0 1-16-16 273.12 273.12 0 0 1 133.44-234.08 161.28 161.28 0 0 0 16.8-11.36c4.96-4 9.92-8.32 14.72-12.96A145.44 145.44 0 0 0 382.72 592a128 128 0 0 1-37.28-7.52 98.88 98.88 0 0 1-18.4-8.48c-3.68-1.92-7.36-4-11.04-6.4l-16 16a130.4 130.4 0 0 1-180.16 6.4 125.44 125.44 0 0 1-35.52-59.84A16 16 0 0 1 96 512h0.96a16 16 0 0 1 18.56 11.68 92.16 92.16 0 0 0 26.4 44.48 97.92 97.92 0 0 0 135.36-5.12l25.92-25.92a16 16 0 0 1 21.92 0 82.88 82.88 0 0 0 17.28 11.36 78.72 78.72 0 0 0 13.76 6.24 102.08 102.08 0 0 0 24.64 5.76 55.68 55.68 0 0 0 12.64 0h3.52a16 16 0 0 1 12.48 3.84 16 16 0 0 1 5.44 12v10.4a176 176 0 0 1-52.64 122.56l-9.76 8.8c-2.4 2.24-4.96 4.32-7.52 6.4a187.2 187.2 0 0 1-20.32 13.76A241.28 241.28 0 0 0 208 928h576V608a383.04 383.04 0 0 0-96-253.76A378.4 378.4 0 0 0 612 288a16 16 0 0 1-4-21.12 16 16 0 0 1 22.24-4.32A415.04 415.04 0 0 1 814.88 608z" fill="#0D182D" p-id="2162"></path><path d="M510.88 456v13.28a1.12 1.12 0 0 1 0 0.8c0 3.52-0.8 6.88-1.44 10.24a74.24 74.24 0 0 1-1.76 8.16 32 32 0 0 1-1.12 4.16 3.84 3.84 0 0 1 0 1.28 75.52 75.52 0 0 1-2.88 8.48c-1.28 3.04-2.4 6.08-3.84 8.96v2.24a81.12 81.12 0 0 1-5.12 9.76l-2.88 4.64-3.52 5.28c-2.24 3.04-4.48 6.08-7.04 9.12a133.92 133.92 0 0 1-9.12 9.92c-2.08 1.92-4 3.84-6.24 5.6a6.24 6.24 0 0 1-1.6 1.28c-2.08 1.92-4.32 3.52-6.56 5.28l-3.52 2.4a96 96 0 0 1-8.48 5.44h-0.8c-3.2 1.76-6.4 3.52-9.76 4.96a108.16 108.16 0 0 1-10.72 4.64l-7.04 2.24a13.6 13.6 0 0 1-2.72 0.96h-3.36l-8.96 2.08H393.12L384 592h-0.96a16 16 0 0 1-16-15.04 17.44 17.44 0 0 1 0-2.88 16.96 16.96 0 0 1 0-3.04l0.96-2.08a10.24 10.24 0 0 1 1.28-2.24 14.24 14.24 0 0 1 2.08-2.24l1.92-1.6a16 16 0 0 1 4.8-2.24h3.04a100.96 100.96 0 0 0 12.16-1.6 103.52 103.52 0 0 0 84.8-101.92 12 12 0 0 1 0-4.16 13.12 13.12 0 0 1 1.6-3.84 12 12 0 0 1 2.4-3.2 14.4 14.4 0 0 1 3.04-2.4 8.32 8.32 0 0 1 3.04-1.28 13.92 13.92 0 0 1 8.32 0 7.36 7.36 0 0 1 3.04 1.28 14.4 14.4 0 0 1 3.04 2.4 12 12 0 0 1 2.4 3.2 13.12 13.12 0 0 1 1.6 3.84 12 12 0 0 1 4.32 3.04z" fill="#0D182D" p-id="2163"></path></svg>