<?xml version="1.0" standalone="no"?><!DOCTYPE svg PUBLIC "-//W3C//DTD SVG 1.1//EN" "http://www.w3.org/Graphics/SVG/1.1/DTD/svg11.dtd"><svg t="1676088464658" class="icon" viewBox="0 0 1024 1024" version="1.1" xmlns="http://www.w3.org/2000/svg" p-id="2302" xmlns:xlink="http://www.w3.org/1999/xlink" width="200" height="200"><path d="M382.88 592a16 16 0 0 1-0.96-32 103.68 103.68 0 0 0 96.96-103.52 16 16 0 0 1 32 0A135.84 135.84 0 0 1 384 592z" p-id="2303"></path><path d="M798.88 960h-608a16 16 0 0 1-16-16 273.12 273.12 0 0 1 133.44-234.08 161.28 161.28 0 0 0 16.8-11.36c4.96-4 9.92-8.32 14.72-12.96A144 144 0 0 0 382.72 592a126.56 126.56 0 0 1-37.12-7.52 105.12 105.12 0 0 1-18.56-8.48 107.36 107.36 0 0 1-10.88-6.4l-16 16A130.08 130.08 0 0 1 120 592a126.56 126.56 0 0 1-2.72-182.08l211.2-211.36a51.04 51.04 0 0 0 6.4-24.8V80a16 16 0 0 1 16-16 128 128 0 0 1 128 128v7.68c12 2.4 24.32 5.28 36.64 8.96A417.76 417.76 0 0 1 814.88 608v336a16 16 0 0 1-16 16zM208 928h576V608a385.44 385.44 0 0 0-277.6-368 320 320 0 0 0-45.76-10.24 16 16 0 0 1-13.76-16V192a94.4 94.4 0 0 0-17.12-54.72 96 96 0 0 0-62.88-40v76a82.24 82.24 0 0 1-12 43.04 22.24 22.24 0 0 1-2.4 3.04L139.84 432a94.56 94.56 0 0 0 2.08 136 97.92 97.92 0 0 0 135.36-5.12L304 537.12a16 16 0 0 1 21.76 0 87.2 87.2 0 0 0 17.28 11.36 74.88 74.88 0 0 0 13.92 6.24 88.96 88.96 0 0 0 40.8 5.76 16 16 0 0 1 12.64 3.84 16 16 0 0 1 5.28 12v8a176 176 0 0 1-52.64 124.96 221.44 221.44 0 0 1-17.28 15.2c-6.24 4.8-12.96 9.28-20.16 13.76A240 240 0 0 0 208 928z" p-id="2304"></path><path d="M382.88 592a16 16 0 0 1-0.96-32 103.68 103.68 0 0 0 96.96-103.52 16 16 0 0 1 32 0A135.68 135.68 0 0 1 384 592z" p-id="2305"></path><path d="M382.88 592a16 16 0 0 1-0.96-32 103.68 103.68 0 0 0 96.96-103.52 16 16 0 0 1 32 0A135.84 135.84 0 0 1 384 592zM366.88 960a16 16 0 0 1-16-16 224 224 0 0 1 208-224V528a16 16 0 0 1 32 0v208a16 16 0 0 1-16 16 192 192 0 0 0-192 192 16 16 0 0 1-16 16zM798.88 896a16 16 0 0 1-16-16V608a385.44 385.44 0 0 0-276.48-368 320 320 0 0 0-45.76-10.24 16 16 0 0 1-13.76-16V192a94.4 94.4 0 0 0-17.12-54.72 16 16 0 0 1-1.12-16 16 16 0 0 1 14.08-9.28h4.16A465.12 465.12 0 0 1 912 576v208a113.92 113.92 0 0 1-113.12 112z m-320-696.32c12 2.4 24.32 5.28 36.64 8.96A417.76 417.76 0 0 1 814.88 608v254.4a77.92 77.92 0 0 0 40.48-21.76A80 80 0 0 0 880 784V576A432.96 432.96 0 0 0 469.92 144a128 128 0 0 1 8.96 48z" p-id="2306"></path><path d="M344 360m-24 0a24 24 0 1 0 48 0 24 24 0 1 0-48 0Z" p-id="2307"></path><path d="M240 320a16 16 0 0 1-11.36-4.64l-24.32-24.48A448 448 0 0 1 96.8 117.12a16 16 0 0 1 3.84-16 16 16 0 0 1 16-3.84 448.8 448.8 0 0 1 173.76 107.36l24.48 24.48a16 16 0 0 1 0 22.72l-64 64A16 16 0 0 1 240 320zM139.68 139.68a414.4 414.4 0 0 0 87.2 128l13.12 13.28L281.44 240l-13.12-13.12a416.96 416.96 0 0 0-128.64-87.2zM560 208a16 16 0 0 1-16-16V144a16 16 0 0 1 32 0v48a16 16 0 0 1-16 16zM896 704h-48a16 16 0 0 1 0-32h48a16 16 0 0 1 0 32zM896 784h-32a16 16 0 0 1 0-32h32a16 16 0 0 1 0 32z" p-id="2308"></path></svg>